HIERARCHY
ROOT Hips
{
	OFFSET 0.00000 0.00000 0.00000
	CHANNELS 6 Xposition Yposition Zposition Zrotation Yrotation Xrotation 
	JOINT LHipJoint
	{
		OFFSET 0 0 0
		CHANNELS 3 Zrotation Yrotation Xrotation
		JOINT LeftUpLeg
		{
			OFFSET 1.75344 -1.53157 0.77399
			CHANNELS 3 Zrotation Yrotation Xrotation
			JOINT LeftLeg
			{
				OFFSET 2.25415 -6.19323 0.00000
				CHANNELS 3 Zrotation Yrotation Xrotation
				JOINT LeftFoot
				{
					OFFSET 2.30342 -6.32861 0.00000
					CHANNELS 3 Zrotation Yrotation Xrotation
					JOINT LeftToeBase
					{
						OFFSET 0.10958 -0.30108 1.49206
						CHANNELS 3 Zrotation Yrotation Xrotation
						End Site
						{
							OFFSET 0.00000 -0.00000 0.77783
						}
					}
				}
			}
		}
	}
	JOINT RHipJoint
	{
		OFFSET 0 0 0
		CHANNELS 3 Zrotation Yrotation Xrotation
		JOINT RightUpLeg
		{
			OFFSET -1.81912 -1.53156 0.77399
			CHANNELS 3 Zrotation Yrotation Xrotation
			JOINT RightLeg
			{
				OFFSET -2.22882 -6.12365 0.00000
				CHANNELS 3 Zrotation Yrotation Xrotation
				JOINT RightFoot
				{
					OFFSET -2.21943 -6.09785 0.00000
					CHANNELS 3 Zrotation Yrotation Xrotation
					JOINT RightToeBase
					{
						OFFSET -0.18931 -0.52012 1.59379
						CHANNELS 3 Zrotation Yrotation Xrotation
						End Site
						{
							OFFSET -0.00000 -0.00000 0.84686
						}
					}
				}
			}
		}
	}
	JOINT LowerBack
	{
		OFFSET 0 0 0
		CHANNELS 3 Zrotation Yrotation Xrotation
		JOINT Spine
		{
			OFFSET -0.00200 1.66634 -0.14248
			CHANNELS 3 Zrotation Yrotation Xrotation
			JOINT Spine1
			{
				OFFSET -0.00875 1.64542 0.09514
				CHANNELS 3 Zrotation Yrotation Xrotation
				JOINT Neck
				{
					OFFSET 0 0 0
					CHANNELS 3 Zrotation Yrotation Xrotation
					JOINT Neck1
					{
						OFFSET 0.02257 1.59605 0.00839
						CHANNELS 3 Zrotation Yrotation Xrotation
						JOINT Head
						{
							OFFSET -0.10214 1.57530 -0.23335
							CHANNELS 3 Zrotation Yrotation Xrotation
							End Site
							{
								OFFSET -0.03588 1.60717 -0.08062
							}
						}
					}
				}
				JOINT LeftShoulder
				{
					OFFSET 0 0 0
					CHANNELS 3 Zrotation Yrotation Xrotation
					JOINT LeftArm
					{
						OFFSET 2.54983 1.10186 0.40078
						CHANNELS 3 Zrotation Yrotation Xrotation
						JOINT LeftForeArm
						{
							OFFSET 4.28840 -0.00000 0.00000
							CHANNELS 3 Zrotation Yrotation Xrotation
							JOINT LeftHand
							{
								OFFSET 3.06552 -0.00000 -0.00000
								CHANNELS 3 Zrotation Yrotation Xrotation
								JOINT LeftFingerBase
								{
									OFFSET 0 0 0
									CHANNELS 3 Zrotation Yrotation Xrotation
									JOINT LeftHandIndex1
									{
										OFFSET 0.75304 -0.00000 0.00000
										CHANNELS 3 Zrotation Yrotation Xrotation
										End Site
										{
											OFFSET 0.60712 -0.00000 0.00000
										}
									}
								}
								JOINT LThumb
								{
									OFFSET 0 0 0
									CHANNELS 3 Zrotation Yrotation Xrotation
									End Site
									{
										OFFSET 0.61639 -0.00000 0.61639
									}
								}
							}
						}
					}
				}
				JOINT RightShoulder
				{
					OFFSET 0 0 0
					CHANNELS 3 Zrotation Yrotation Xrotation
					JOINT RightArm
					{
						OFFSET -2.60909 1.35448 0.21802
						CHANNELS 3 Zrotation Yrotation Xrotation
						JOINT RightForeArm
						{
							OFFSET -4.52172 -0.00000 -0.00000
							CHANNELS 3 Zrotation Yrotation Xrotation
							JOINT RightHand
							{
								OFFSET -2.89140 -0.00000 0.00000
								CHANNELS 3 Zrotation Yrotation Xrotation
								JOINT RightFingerBase
								{
									OFFSET 0 0 0
									CHANNELS 3 Zrotation Yrotation Xrotation
									JOINT RightHandIndex1
									{
										OFFSET -0.68054 -0.00000 0.00000
										CHANNELS 3 Zrotation Yrotation Xrotation
										End Site
										{
											OFFSET -0.54867 -0.00000 0.00000
										}
									}
								}
								JOINT RThumb
								{
									OFFSET 0 0 0
									CHANNELS 3 Zrotation Yrotation Xrotation
									End Site
									{
										OFFSET -0.55705 -0.00000 0.55705
									}
								}
							}
						}
					}
				}
			}
		}
	}
}
MOTION
Frames: 11
Frame Time: .0083333
8.4015 15.2285 42.3514 0 0 0 0 0 0 -21 0 0 0 0 0 0 0 0 0 0 0 0 0 0 21 0 0 0 0 0 0 0 0 0 0 0 0 0 0 0 0 0 0 0 0 0 0 -16 0 0 21 0 0 11 0 0 0 -8 0 0 0 0 0 0 0 0 0 0 0 0 0 0 0 0 0 0 0 0 8 0 0 0 0 0 0 0 0 0 0 0 0 0 0 0 0 0
8.4015 15.2285 42.3514 -177.6010 -0.2948 178.5250 0.0000 0.0000 0.0000 -22.2674 -22.5480 -0.9732 2.4504 9.7471 28.1616 1.3532 11.4081 -28.7526 2.1224 -9.1165 -26.1604 0.0000 0.0000 0.0000 24.9897 15.9126 1.2155 -1.4772 -7.6798 21.7456 -0.2082 -17.2700 -26.2482 -0.0780 1.8021 -4.9590 2.0217 0.1051 7.4521 0.9632 0.3755 -1.8698 -0.1776 0.1206 -6.1317 -4.7558 0.0798 -6.7208 3.1740 -3.4375 31.2414 1.3571 -2.9930 11.3346 -0.0000 -0.0000 0.0000 -87.4835 11.4355 33.2823 22.2921 -33.3056 -6.7455 -0.0000 -0.0000 14.1877 5.4948 -34.5486 -3.1226 -7.1250 0.0000 -0.0000 -14.8816 -3.6741 16.3515 -0.0000 -0.0000 0.0000 82.9978 -10.6905 47.8416 -16.6250 26.3607 -3.9194 0.0000 0.0000 16.4067 -14.1436 -50.0568 10.9347 7.1250 -0.0000 -0.0000 54.8150 -75.4148 -41.7856
8.4010 15.2292 42.3593 -177.9580 -0.1951 178.3550 0.0000 0.0000 0.0000 -22.7153 -22.4020 -0.5703 2.3690 9.5958 27.6773 1.4382 10.8656 -28.9006 1.7275 -8.2738 -23.5489 0.0000 0.0000 0.0000 24.6446 16.0095 1.1139 -1.5545 -7.8689 22.3166 -0.2859 -16.9536 -26.4736 -0.0814 1.8401 -5.0639 1.7345 0.2455 7.7737 0.7444 0.5364 -1.8236 -0.2671 0.2084 -6.2637 -4.6373 -0.0487 -6.3266 3.0927 -3.6279 31.0031 1.2912 -3.0747 11.1684 -0.0000 0.0000 0.0000 -87.1557 11.3557 33.6266 22.4042 -33.4308 -6.8072 -0.0000 -0.0000 13.8741 4.8717 -34.5587 -2.7680 -7.1250 0.0000 -0.0000 -15.2170 -3.6134 16.7316 -0.0000 0.0000 0.0000 83.2223 -10.6462 47.4164 -16.6307 26.3684 -3.9219 0.0000 0.0000 17.1008 -12.8856 -49.9300 9.9299 7.1250 -0.0000 -0.0000 55.2961 -74.8705 -41.6537
8.4006 15.2285 42.3633 -178.2830 -0.1746 178.1710 0.0000 0.0000 0.0000 -23.1666 -22.3436 -0.1584 2.3014 9.4675 27.2690 1.4030 10.9598 -28.7351 1.6735 -8.1501 -23.1709 0.0000 0.0000 0.0000 24.3429 16.0874 1.1111 -1.6146 -8.0125 22.7520 -0.3189 -16.9087 -26.6804 -0.0912 1.9481 -5.3622 1.4098 0.2781 8.0421 0.6219 0.5490 -1.8229 -0.2160 0.2250 -6.4175 -4.6260 0.0452 -6.7064 3.0865 -3.6334 31.7273 1.2703 -3.1200 11.5301 -0.0000 0.0000 0.0000 -87.0866 11.3976 33.5874 22.3888 -33.4137 -6.7987 -0.0000 -0.0000 13.8843 5.1319 -34.7605 -2.9312 -7.1250 0.0000 -0.0000 -15.0874 -3.8368 16.6345 -0.0000 0.0000 0.0000 83.2767 -10.7295 47.3953 -16.6690 26.4193 -3.9389 0.0000 0.0000 17.3045 -12.5412 -49.8369 9.6480 7.1250 -0.0000 -0.0000 55.2410 -74.6943 -41.4305
8.3980 15.2268 42.3639 -178.6220 -0.1333 177.9970 0.0000 0.0000 0.0000 -23.6350 -22.2172 0.2949 2.2200 9.3100 26.7698 1.3679 11.1322 -28.6312 1.5976 -7.9721 -22.6294 0.0000 0.0000 0.0000 24.0231 16.1930 1.0641 -1.6904 -8.1890 23.2897 -0.3526 -16.9135 -26.9515 -0.1013 2.0526 -5.6512 1.0897 0.3140 8.2316 0.5042 0.5620 -1.8030 -0.1623 0.2421 -6.5062 -4.4636 0.1160 -7.1356 2.8712 -3.6216 32.4283 1.1461 -3.1589 11.8926 0.0000 0.0000 0.0000 -87.0508 11.4031 33.5273 22.3227 -33.3398 -6.7624 -0.0000 -0.0000 13.9711 5.4399 -35.0380 -3.1294 -7.1250 0.0000 -0.0000 -14.9372 -4.1391 16.5313 0.0000 0.0000 0.0000 83.2794 -10.7709 47.4039 -16.6915 26.4492 -3.9489 0.0000 0.0000 17.5210 -12.0412 -49.6308 9.2308 7.1250 -0.0000 -0.0000 54.9463 -74.4042 -40.8905
8.3934 15.2247 42.3697 -178.9920 -0.1233 177.8660 0.0000 0.0000 0.0000 -24.1181 -22.1245 0.6235 2.1566 9.1848 26.3752 1.3384 11.2606 -28.5317 1.6098 -8.0010 -22.7173 0.0000 0.0000 0.0000 23.6175 16.1934 0.9588 -1.7484 -8.3211 23.6936 -0.3916 -16.8006 -27.1177 -0.1100 2.1385 -5.8886 0.7851 0.3472 8.4695 0.3696 0.5706 -1.7938 -0.1347 0.2559 -6.6337 -4.7473 0.2436 -7.0175 3.1815 -3.5473 32.5878 1.3192 -3.1460 11.9387 0.0000 0.0000 0.0000 -86.9468 11.3776 33.6568 22.2806 -33.2927 -6.7392 -0.0000 -0.0000 14.0101 5.9951 -35.2031 -3.4645 -7.1250 0.0000 -0.0000 -14.6498 -4.3632 16.2450 0.0000 0.0000 0.0000 83.2574 -10.7580 47.4578 -16.7452 26.5207 -3.9729 0.0000 0.0000 17.5651 -11.6909 -49.8808 8.9917 7.1250 -0.0000 -0.0000 56.0044 -74.3934 -41.7726
8.3895 15.2219 42.3784 -179.6990 -0.1677 177.4910 0.0000 0.0000 0.0000 -25.0782 -21.9940 1.2235 2.0977 9.0666 26.0040 1.2977 11.3939 -28.3582 1.6133 -8.0094 -22.7427 0.0000 0.0000 0.0000 22.9114 16.0628 1.1245 -1.8028 -8.4427 24.0669 -0.4527 -16.6159 -27.3669 -0.1090 2.1285 -5.8609 0.1130 0.3848 9.0070 0.1518 0.5363 -1.7248 0.0164 0.2613 -6.8722 -4.6041 0.2574 -7.0350 3.0253 -3.5503 32.7474 1.2315 -3.1618 12.0026 0.0000 0.0000 0.0000 -86.8578 11.3882 33.7952 22.2750 -33.2864 -6.7361 -0.0000 -0.0000 14.0018 6.3979 -35.3511 -3.7120 -7.1250 0.0000 -0.0000 -14.4438 -4.5548 16.0463 0.0000 0.0000 0.0000 83.2622 -10.7565 47.5893 -16.8227 26.6235 -4.0076 0.0000 0.0000 17.4773 -11.7080 -50.4966 9.0847 7.1250 -0.0000 -0.0000 58.0064 -74.6843 -43.7794
8.3858 15.2226 42.3759 -179.6090 -0.1481 177.4880 0.0000 0.0000 0.0000 -24.9981 -21.9418 1.3753 2.0555 8.9807 25.7349 1.2715 11.4726 -28.2396 1.7681 -8.3653 -23.8293 0.0000 0.0000 0.0000 22.9928 16.0833 1.0172 -1.8443 -8.5340 24.3481 -0.5109 -16.4530 -27.6171 -0.0884 1.9176 -5.2781 0.2732 0.4093 8.9577 0.1199 0.5850 -1.7163 -0.1141 0.2781 -6.8331 -4.6602 0.3145 -6.7777 3.1964 -3.5486 32.7111 1.3081 -3.1604 11.9379 0.0000 0.0000 0.0000 -86.8172 11.3345 33.7257 22.3417 -33.3610 -6.7728 -0.0000 -0.0000 13.5954 5.2815 -35.4886 -3.0719 -7.1250 0.0000 -0.0000 -15.0464 -4.5545 16.7627 0.0000 0.0000 0.0000 83.3496 -10.7732 47.7531 -16.7956 26.5875 -3.9954 0.0000 0.0000 17.8063 -12.2917 -51.0206 9.6133 7.1250 -0.0000 -0.0000 59.4121 -75.1332 -45.4617
8.3837 15.2221 42.3762 -179.7330 -0.1119 177.5060 0.0000 0.0000 0.0000 -25.1249 -21.8574 1.4309 2.0240 8.9158 25.5324 1.1778 11.8341 -27.8824 2.1982 -9.2673 -26.6350 0.0000 0.0000 0.0000 22.8296 16.1041 0.8949 -1.8743 -8.5991 24.5490 -0.5310 -16.4830 -27.8024 -0.0937 1.9741 -5.4340 0.1756 0.4401 8.9174 0.0420 0.6100 -1.7077 -0.1441 0.2928 -6.8010 -4.4772 0.3070 -7.1049 3.0443 -3.6248 33.1548 1.1981 -3.2118 12.1864 0.0000 0.0000 0.0000 -86.7635 11.2864 33.7898 22.2387 -33.2457 -6.7162 -0.0000 -0.0000 14.0857 6.7297 -35.5532 -3.9250 -7.1250 0.0000 -0.0000 -14.2797 -4.7907 15.9068 0.0000 0.0000 0.0000 83.4015 -10.7997 48.1603 -16.6539 26.3992 -3.9322 0.0000 0.0000 18.6544 -14.1673 -51.7699 11.2159 7.1250 -0.0000 -0.0000 61.0502 -76.1559 -47.9649
8.3820 15.2237 42.3791 -179.8180 -0.1215 177.5080 0.0000 0.0000 0.0000 -25.2073 -21.7900 1.3918 2.0193 8.9061 25.5022 1.1266 11.9927 -27.6523 2.3840 -9.6239 -27.7672 0.0000 0.0000 0.0000 22.7300 16.0800 0.8626 -1.8768 -8.6047 24.5663 -0.5030 -16.6934 -27.8363 -0.1124 2.1620 -5.9537 0.0878 0.4418 8.8928 0.0035 0.5994 -1.6684 -0.1330 0.2903 -6.7456 -4.3877 0.3458 -7.3433 2.9170 -3.5994 33.4797 1.1288 -3.2199 12.3662 -0.0000 -0.0000 0.0000 -86.7084 11.1701 33.7221 22.3001 -33.3145 -6.7499 -0.0000 -0.0000 13.6704 5.7469 -35.4316 -3.3391 -7.1250 0.0000 -0.0000 -14.7957 -4.5540 16.4637 -0.0000 -0.0000 0.0000 83.4582 -10.6294 47.9685 -16.6316 26.3695 -3.9223 0.0000 0.0000 18.0920 -13.3318 -50.9491 10.4276 7.1250 -0.0000 -0.0000 58.5030 -75.5033 -45.0515
8.3803 15.2243 42.3812 -179.8020 -0.1081 177.4500 0.0000 0.0000 0.0000 -25.1961 -21.6828 1.4216 2.0131 8.8933 25.4621 1.1897 11.6249 -27.7885 2.1478 -9.1675 -26.3206 0.0000 0.0000 0.0000 22.7590 16.0869 0.9068 -1.8795 -8.6105 24.5842 -0.5081 -16.5913 -27.7561 -0.0911 1.9469 -5.3589 0.0778 0.4404 8.9145 0.0270 0.5976 -1.6180 -0.1025 0.2903 -6.7050 -4.5791 0.4327 -7.1872 3.0510 -3.5037 33.4749 1.2268 -3.1942 12.3316 -0.0000 -0.0000 0.0000 -86.7229 11.2379 33.8448 22.3485 -33.3687 -6.7766 -0.0000 -0.0000 14.0088 6.9863 -35.3170 -4.0522 -7.1250 0.0000 -0.0000 -14.1272 -4.5949 15.6815 -0.0000 -0.0000 0.0000 83.3732 -10.6045 48.2947 -16.6614 26.4092 -3.9355 0.0000 0.0000 18.1707 -13.9723 -51.4148 11.0063 7.1250 -0.0000 -0.0000 59.8153 -75.9430 -46.6523
